<?xml version="1.0" encoding="UTF-8" standalone="no"?>
<!DOCTYPE svg PUBLIC "-//W3C//DTD SVG 1.1//EN" "http://www.w3.org/Graphics/SVG/1.1/DTD/svg11.dtd">
<svg width="48" height="48" viewBox="0 0 48 48" fill="none" xmlns="http://www.w3.org/2000/svg">
  <rect width="48" height="48" fill="black"/>
  <path d="M24.048 35.16C22.4267 35.16 20.9653 34.7973 19.664 34.072C18.3627 33.3253 17.3387 32.3013 16.592 31C15.8453 29.6987 15.472 28.2267 15.472 26.584C15.472 24.9413 15.8453 23.4693 16.592 22.168C17.3387 20.8667 18.3627 19.8533 19.664 19.128C20.9653 18.4027 22.4267 18.04 24.048 18.04C25.6693 18.04 27.1307 18.4027 28.432 19.128C29.7333 19.8533 30.7467 20.8667 31.472 22.168C32.2187 23.4693 32.592 24.9413 32.592 26.584C32.592 28.2267 32.2187 29.6987 31.472 31C30.7467 32.3013 29.7333 33.3253 28.432 34.072C27.1307 34.7973 25.6693 35.16 24.048 35.16ZM24.048 33.144C25.2427 33.144 26.3093 32.8773 27.248 32.344C28.208 31.7893 28.9547 31.0107 29.488 30.008C30.0213 29.0053 30.288 27.864 30.288 26.584C30.288 25.304 30.0213 24.1627 29.488 23.16C28.9547 22.1573 28.208 21.3893 27.248 20.856C26.3093 20.3013 25.2427 20.024 24.048 20.024C22.8533 20.024 21.776 20.3013 20.816 20.856C19.8773 21.3893 19.1307 22.1573 18.576 23.16C18.0427 24.1627 17.776 25.304 17.776 26.584C17.776 27.864 18.0427 29.0053 18.576 30.008C19.1307 31.0107 19.8773 31.7893 20.816 32.344C21.776 32.8773 22.8533 33.144 24.048 33.144Z" fill="white"/>
  <g mask="url(#mask0_99_511)">
    <circle cx="24" cy="26.6" r="14" stroke="white" stroke-width="2"/>
  </g>
  <circle cx="14.2" cy="16.6" r="1" fill="white"/>
  <circle cx="33.796" cy="16.6" r="1" fill="white"/>
</svg>
