<?xml version="1.0" standalone="no"?>
<!DOCTYPE svg PUBLIC "-//W3C//DTD SVG 20010904//EN"
 "http://www.w3.org/TR/2001/REC-SVG-20010904/DTD/svg10.dtd">
<svg version="1.0" xmlns="http://www.w3.org/2000/svg"
 width="512.000000pt" height="512.000000pt" viewBox="0 0 512.000000 512.000000"
 preserveAspectRatio="xMidYMid meet">
<metadata>
Created by potrace 1.14, written by Peter Selinger 2001-2017
</metadata>
<g transform="translate(0.000000,512.000000) scale(0.100000,-0.100000)"
fill="#000000" stroke="none">
<path d="M0 2560 l0 -2560 2560 0 2560 0 0 2560 0 2560 -2560 0 -2560 0 0
-2560z m2792 1495 c368 -49 708 -202 979 -441 94 -84 117 -128 97 -189 -15
-46 -66 -85 -112 -85 -37 0 -61 15 -161 102 -588 512 -1475 512 -2068 2 -102
-88 -127 -104 -161 -104 -45 0 -95 34 -113 77 -29 71 7 127 167 255 273 220
589 348 965 392 82 9 307 4 407 -9z m2 -792 c402 -75 702 -374 792 -788 23
-109 23 -349 -1 -460 -44 -205 -131 -369 -275 -515 -187 -191 -402 -283 -690
-297 -693 -34 -1190 525 -1085 1220 90 595 633 958 1259 840z"/>
<path d="M2470 3039 c-217 -23 -417 -142 -534 -318 -140 -211 -174 -518 -85
-784 33 -99 95 -195 184 -284 142 -140 311 -205 535 -205 308 1 554 154 679
423 63 133 91 317 72 470 -15 134 -35 201 -87 307 -138 275 -433 427 -764 391z"/>
</g>
</svg>
