<?xml version="1.0" standalone="no"?>
<!DOCTYPE svg PUBLIC "-//W3C//DTD SVG 20010904//EN"
 "http://www.w3.org/TR/2001/REC-SVG-20010904/DTD/svg10.dtd">
<svg version="1.0" xmlns="http://www.w3.org/2000/svg"
 width="512.000000pt" height="512.000000pt" viewBox="0 0 512.000000 512.000000"
 preserveAspectRatio="xMidYMid meet">
<metadata>
Created by potrace 1.14, written by Peter Selinger 2001-2017
</metadata>
<g transform="translate(0.000000,512.000000) scale(0.100000,-0.100000)"
fill="#000000" stroke="none">
<path d="M1046 5104 c-162 -29 -344 -105 -496 -207 -96 -64 -263 -231 -327
-327 -105 -157 -178 -334 -207 -505 -14 -79 -16 -268 -16 -1506 0 -1554 -2
-1495 60 -1681 65 -194 166 -356 314 -504 148 -148 310 -249 504 -314 187 -62
129 -60 1683 -60 1554 0 1495 -2 1681 60 194 65 356 166 504 314 148 148 249
310 314 504 62 187 60 129 60 1683 0 1554 2 1495 -60 1681 -65 194 -166 356
-314 504 -148 148 -310 249 -504 314 -187 62 -128 60 -1692 59 -1188 -1 -1438
-3 -1504 -15z m3398 -1795 l-465 -465 18 -90 c14 -69 18 -136 17 -299 0 -226
-14 -325 -70 -495 -115 -345 -375 -646 -699 -808 -424 -212 -1015 -197 -1420
35 -363 207 -614 564 -692 983 -24 133 -25 448 0 577 85 454 355 816 757 1014
113 56 188 82 330 116 157 37 445 44 619 14 304 -52 561 -181 767 -386 58 -58
126 -139 161 -191 l61 -92 408 409 409 409 132 -132 133 -133 -466 -466z"/>
<path d="M2330 3561 c-154 -34 -288 -92 -404 -175 -80 -57 -196 -180 -253
-268 -237 -367 -239 -943 -4 -1310 60 -93 184 -225 268 -284 85 -61 216 -121
331 -151 120 -31 353 -42 483 -23 283 41 534 195 686 421 82 121 127 222 164
369 21 84 47 335 36 347 -4 4 -236 -221 -515 -500 l-507 -507 -533 533 -532
532 132 133 133 132 400 -400 400 -400 468 468 467 467 -30 64 c-124 261 -359
455 -653 537 -79 23 -116 27 -272 30 -150 3 -194 1 -265 -15z"/>
</g>
</svg>
