<?xml version="1.0" standalone="no"?>
<!DOCTYPE svg PUBLIC "-//W3C//DTD SVG 20010904//EN"
 "http://www.w3.org/TR/2001/REC-SVG-20010904/DTD/svg10.dtd">
<svg version="1.0" xmlns="http://www.w3.org/2000/svg"
 width="372.000000pt" height="372.000000pt" viewBox="0 0 372.000000 372.000000"
 preserveAspectRatio="xMidYMid meet">
<metadata>
Created by potrace 1.11, written by Peter Selinger 2001-2013
</metadata>
<g transform="translate(0.000000,372.000000) scale(0.100000,-0.100000)"
fill="#000000" stroke="none">
<path d="M1698 3715 c-2 -2 -25 -5 -53 -9 -27 -3 -75 -10 -105 -16 -30 -6 -66
-13 -80 -16 -182 -35 -438 -140 -604 -249 -352 -229 -625 -575 -750 -952 -20
-60 -38 -118 -40 -129 -2 -10 -9 -39 -16 -64 -16 -61 -21 -90 -40 -235 -8 -66
-5 -376 4 -415 3 -14 9 -45 12 -70 3 -25 10 -63 16 -85 6 -22 12 -49 14 -61
19 -105 110 -337 175 -449 21 -37 39 -69 39 -72 0 -9 85 -128 143 -200 63 -79
202 -220 257 -262 19 -14 44 -34 55 -44 91 -83 355 -224 535 -285 168 -56 247
-74 420 -92 75 -8 403 -5 417 3 5 3 30 8 57 11 223 30 528 149 731 285 440
295 724 738 811 1261 21 122 25 396 8 524 -100 767 -649 1383 -1399 1570 -65
16 -100 23 -155 31 -19 3 -46 8 -60 12 -24 6 -386 13 -392 8z m372 -128 c14
-3 48 -8 75 -12 133 -17 327 -80 480 -154 349 -170 632 -455 800 -806 72 -150
138 -358 150 -473 3 -26 9 -71 14 -101 9 -55 7 -345 -2 -391 -3 -14 -10 -57
-16 -96 -22 -146 -96 -360 -178 -514 -266 -498 -760 -836 -1320 -904 -334 -41
-675 17 -978 164 -466 226 -800 645 -929 1165 -56 226 -56 553 0 784 9 36 17
72 19 80 12 56 85 240 129 326 108 208 238 372 419 529 247 213 588 363 917
402 30 3 56 8 58 9 5 5 336 -3 362 -8z"/>
<path d="M1660 3124 c-419 -75 -764 -330 -945 -698 -97 -199 -135 -375 -130
-596 4 -152 7 -168 40 -297 128 -487 528 -848 1038 -937 105 -18 345 -14 442
8 338 77 606 250 796 516 79 110 176 314 193 403 1 7 8 37 14 67 28 130 31
162 27 300 -1 80 -5 152 -8 160 -4 8 -8 29 -10 45 -16 104 -85 295 -143 391
-19 31 -34 58 -34 61 0 10 -121 161 -163 203 -179 180 -377 293 -631 356 -123
31 -363 40 -486 18z m395 -79 c208 -42 373 -114 534 -235 242 -183 415 -477
458 -780 10 -66 10 -277 0 -342 -39 -261 -175 -523 -363 -697 -369 -340 -885
-424 -1331 -216 -165 77 -358 235 -461 375 -108 148 -193 357 -219 540 -10 68
-10 268 -1 335 44 313 215 600 475 798 124 94 343 192 479 213 17 3 53 9 80
13 53 9 300 6 349 -4z"/>
<path d="M1700 2581 c-263 -59 -473 -258 -552 -521 -26 -86 -32 -260 -12 -355
19 -90 89 -233 151 -310 232 -286 640 -356 959 -164 166 100 297 286 338 479
21 95 14 267 -14 355 -79 252 -277 445 -525 511 -87 24 -253 26 -345 5z"/>
</g>
</svg>
