<svg xmlns="http://www.w3.org/2000/svg" width="170" height="165" fill="none" viewBox="0 0 170 165">
  <rect width="165" height="165" x="5" fill="#121212" rx="8"/>
  <rect width="164" height="164" x="5.5" y=".5" stroke="#fff" stroke-opacity=".12" rx="7.5"/>
  <g filter="url(#filter0_d_31:320)">
    <circle cx="39" cy="80" r="15" fill="#FD6"/>
  </g>
  <path fill="#FD6" d="M25 79.036c0-9.36 5.026-9.805 5.026-19.016 0-9.21 18.235-9.508 18.523 0C48.836 69.528 53 69.825 53 79.036c0 9.21-28 9.36-28 0z"/>
  <path fill="#EEE" d="M27 35h24v28H27z"/>
  <path fill="#EEE" d="M38.46 27h2.918L43 39h-6l1.46-12z"/>
  <path fill="#000" fill-opacity=".04" d="M27 35h13v28H27z"/>
  <path fill="#fff" d="M27.406 136.188h5.617V137h-6.586v-11.375h.97v10.563zm8.297.812h-.937v-8.453h.937V137zm-1.101-10.898a.62.62 0 01.171-.446.604.604 0 01.47-.187c.197 0 .353.062.468.187.12.12.18.268.18.446a.617.617 0 01-.648.625.618.618 0 01-.47-.18.62.62 0 01-.171-.445zm6.28 9.609l2.571-7.164h.961L41.258 137H40.5l-3.172-8.453h.961l2.594 7.164zM47 137h-.938v-8.453H47V137zm-1.102-10.898a.62.62 0 01.172-.446.604.604 0 01.47-.187c.197 0 .353.062.468.187.12.12.18.268.18.446a.617.617 0 01-.648.625.617.617 0 01-.47-.18.619.619 0 01-.172-.445zm4.54 2.445l.03 1.445c.318-.521.714-.916 1.188-1.187a3.064 3.064 0 011.57-.414c.907 0 1.581.255 2.024.765.443.511.667 1.276.672 2.297V137h-.93v-5.555c-.005-.755-.166-1.317-.484-1.687-.313-.37-.815-.555-1.508-.555-.578 0-1.091.182-1.54.547-.442.359-.77.846-.983 1.461V137h-.93v-8.453h.89zm7.53 4.148c0-1.323.292-2.369.876-3.14.588-.776 1.385-1.164 2.39-1.164 1.151 0 2.026.458 2.625 1.375l.047-1.219h.875v8.281c0 1.089-.304 1.951-.914 2.586-.61.635-1.435.953-2.476.953a3.764 3.764 0 01-1.688-.398 3.255 3.255 0 01-1.258-1.047l.524-.563c.661.813 1.448 1.219 2.36 1.219.78 0 1.39-.232 1.827-.695.438-.459.664-1.097.68-1.914v-1.063c-.599.834-1.471 1.25-2.617 1.25-.98 0-1.766-.39-2.36-1.172-.593-.781-.89-1.836-.89-3.164v-.125zm.946.164c0 1.079.216 1.93.648 2.555.433.62 1.042.93 1.829.93 1.15 0 1.966-.516 2.445-1.547v-3.93c-.219-.541-.534-.953-.945-1.234-.412-.287-.907-.43-1.485-.43-.786 0-1.398.31-1.836.93-.437.614-.656 1.523-.656 2.726zm16.102-3.515a3.443 3.443 0 00-.633-.055c-.584 0-1.078.164-1.485.492-.4.323-.687.795-.859 1.414V137h-.93v-8.453h.914l.016 1.344c.495-1 1.29-1.5 2.383-1.5.26 0 .466.033.617.101l-.023.852zm.812 3.304c0-.812.156-1.544.469-2.195.318-.651.763-1.156 1.336-1.515.578-.365 1.232-.547 1.96-.547 1.126 0 2.037.395 2.735 1.187.698.787 1.047 1.831 1.047 3.133v.195c0 .818-.159 1.555-.477 2.211-.312.651-.755 1.154-1.328 1.508-.573.354-1.226.531-1.96.531-1.12 0-2.032-.393-2.735-1.179-.698-.792-1.047-1.839-1.047-3.141v-.188zm.938.258c0 1.011.26 1.841.78 2.492.527.646 1.214.969 2.063.969.844 0 1.526-.323 2.047-.969.526-.651.79-1.507.79-2.57v-.18c0-.645-.12-1.237-.36-1.773-.24-.536-.576-.951-1.008-1.242a2.558 2.558 0 00-1.484-.445c-.834 0-1.513.328-2.04.984-.525.651-.788 1.505-.788 2.562v.172zm8.03-.258c0-.812.157-1.544.47-2.195.317-.651.763-1.156 1.336-1.515.578-.365 1.231-.547 1.96-.547 1.126 0 2.037.395 2.735 1.187.698.787 1.047 1.831 1.047 3.133v.195c0 .818-.16 1.555-.477 2.211-.312.651-.755 1.154-1.328 1.508-.573.354-1.227.531-1.96.531-1.12 0-2.032-.393-2.735-1.179-.698-.792-1.047-1.839-1.047-3.141v-.188zm.938.258c0 1.011.26 1.841.782 2.492.526.646 1.213.969 2.062.969.844 0 1.526-.323 2.047-.969.526-.651.79-1.507.79-2.57v-.18c0-.645-.12-1.237-.36-1.773-.24-.536-.576-.951-1.008-1.242a2.558 2.558 0 00-1.484-.445c-.834 0-1.514.328-2.04.984-.526.651-.789 1.505-.789 2.562v.172zm9.399-4.359l.031 1.375c.313-.511.703-.893 1.172-1.149.469-.255.99-.382 1.562-.382 1.334 0 2.18.547 2.54 1.64a3.15 3.15 0 011.21-1.211 3.338 3.338 0 011.672-.429c1.813 0 2.737.989 2.774 2.968V137h-.938v-5.57c-.005-.756-.169-1.315-.492-1.68-.318-.365-.838-.547-1.562-.547-.672.011-1.24.229-1.704.656a2.294 2.294 0 00-.773 1.547V137h-.938v-5.641c-.005-.724-.177-1.263-.515-1.617-.334-.359-.85-.539-1.547-.539-.588 0-1.094.169-1.516.508-.421.333-.734.831-.937 1.492V137h-.938v-8.453h.899z"/>
  <defs>
    <filter id="filter0_d_31:320" width="78" height="78" x="0" y="43" color-interpolation-filters="sRGB" filterUnits="userSpaceOnUse">
      <feFlood flood-opacity="0" result="BackgroundImageFix"/>
      <feColorMatrix in="SourceAlpha" result="hardAlpha" values="0 0 0 0 0 0 0 0 0 0 0 0 0 0 0 0 0 0 127 0"/>
      <feOffset dy="2"/>
      <feGaussianBlur stdDeviation="12"/>
      <feComposite in2="hardAlpha" operator="out"/>
      <feColorMatrix values="0 0 0 0 1 0 0 0 0 0.866667 0 0 0 0 0.4 0 0 0 1 0"/>
      <feBlend in2="BackgroundImageFix" result="effect1_dropShadow_31:320"/>
      <feBlend in="SourceGraphic" in2="effect1_dropShadow_31:320" result="shape"/>
    </filter>
  </defs>
</svg>
