<svg xmlns="http://www.w3.org/2000/svg" xmlns:xlink="http://www.w3.org/1999/xlink" width="338" height="165" fill="none" viewBox="0 0 338 165">
  <rect width="338" height="165" fill="#343434" rx="8"/>
  <rect width="337" height="164" x=".5" y=".5" stroke="#fff" stroke-opacity=".12" rx="7.5"/>
  <path fill="#fff" d="M17.406 136.188h5.617V137h-6.585v-11.375h.968v10.563zm8.297.812h-.937v-8.453h.937V137zm-1.101-10.898a.62.62 0 01.171-.446.604.604 0 01.47-.187c.197 0 .353.062.468.187.12.12.18.268.18.446a.617.617 0 01-.648.625.618.618 0 01-.47-.18.62.62 0 01-.171-.445zm6.28 9.609l2.571-7.164h.961L31.258 137H30.5l-3.172-8.453h.961l2.594 7.164zM37 137h-.938v-8.453H37V137zm-1.102-10.898a.62.62 0 01.172-.446.604.604 0 01.47-.187c.197 0 .353.062.468.187.12.12.18.268.18.446a.617.617 0 01-.648.625.617.617 0 01-.47-.18.619.619 0 01-.172-.445zm4.54 2.445l.03 1.445c.318-.521.714-.916 1.188-1.187a3.064 3.064 0 011.57-.414c.907 0 1.581.255 2.024.765.443.511.667 1.276.672 2.297V137h-.93v-5.555c-.005-.755-.166-1.317-.484-1.687-.313-.37-.815-.555-1.508-.555-.578 0-1.091.182-1.54.547-.442.359-.77.846-.983 1.461V137h-.93v-8.453h.89zm7.53 4.148c0-1.323.292-2.369.876-3.14.588-.776 1.385-1.164 2.39-1.164 1.151 0 2.026.458 2.625 1.375l.047-1.219h.875v8.281c0 1.089-.304 1.951-.914 2.586-.61.635-1.435.953-2.476.953a3.764 3.764 0 01-1.688-.398 3.255 3.255 0 01-1.258-1.047l.524-.563c.661.813 1.448 1.219 2.36 1.219.78 0 1.39-.232 1.827-.695.438-.459.664-1.097.68-1.914v-1.063c-.599.834-1.471 1.25-2.617 1.25-.98 0-1.766-.39-2.36-1.172-.593-.781-.89-1.836-.89-3.164v-.125zm.946.164c0 1.079.216 1.93.648 2.555.433.62 1.042.93 1.829.93 1.15 0 1.966-.516 2.445-1.547v-3.93c-.219-.541-.534-.953-.945-1.234-.412-.287-.907-.43-1.485-.43-.786 0-1.398.31-1.836.93-.437.614-.656 1.523-.656 2.726zm19.992-3.515a3.443 3.443 0 00-.633-.055c-.583 0-1.078.164-1.484.492-.401.323-.687.795-.86 1.414V137H65v-8.453h.914l.016 1.344c.494-1 1.289-1.5 2.382-1.5.26 0 .467.033.618.101l-.024.852zm.813 3.304c0-.812.156-1.544.469-2.195.317-.651.763-1.156 1.335-1.515.579-.365 1.232-.547 1.961-.547 1.125 0 2.037.395 2.735 1.187.698.787 1.047 1.831 1.047 3.133v.195c0 .818-.16 1.555-.477 2.211-.312.651-.755 1.154-1.328 1.508-.573.354-1.227.531-1.961.531-1.12 0-2.031-.393-2.734-1.179-.698-.792-1.047-1.839-1.047-3.141v-.188zm.937.258c0 1.011.26 1.841.781 2.492.526.646 1.214.969 2.063.969.844 0 1.526-.323 2.047-.969.526-.651.789-1.507.789-2.57v-.18a4.3 4.3 0 00-.36-1.773c-.239-.536-.575-.951-1.007-1.242a2.558 2.558 0 00-1.485-.445c-.833 0-1.513.328-2.039.984-.526.651-.789 1.505-.789 2.562v.172zm8.031-.258c0-.812.157-1.544.47-2.195.317-.651.762-1.156 1.335-1.515.578-.365 1.232-.547 1.961-.547 1.125 0 2.037.395 2.734 1.187.698.787 1.047 1.831 1.047 3.133v.195c0 .818-.158 1.555-.476 2.211-.313.651-.755 1.154-1.328 1.508-.573.354-1.227.531-1.961.531-1.12 0-2.031-.393-2.735-1.179-.697-.792-1.046-1.839-1.046-3.141v-.188zm.938.258c0 1.011.26 1.841.781 2.492.526.646 1.214.969 2.063.969.844 0 1.526-.323 2.047-.969.526-.651.789-1.507.789-2.57v-.18c0-.645-.12-1.237-.36-1.773-.24-.536-.575-.951-1.007-1.242a2.558 2.558 0 00-1.485-.445c-.833 0-1.513.328-2.039.984-.526.651-.789 1.505-.789 2.562v.172zm9.398-4.359l.032 1.375c.312-.511.703-.893 1.172-1.149.468-.255.99-.382 1.562-.382 1.333 0 2.18.547 2.54 1.64a3.151 3.151 0 011.21-1.211 3.335 3.335 0 011.672-.429c1.812 0 2.737.989 2.773 2.968V137h-.937v-5.57c-.005-.756-.17-1.315-.492-1.68-.318-.365-.839-.547-1.563-.547-.672.011-1.24.229-1.703.656a2.292 2.292 0 00-.773 1.547V137h-.938v-5.641c-.005-.724-.177-1.263-.516-1.617-.333-.359-.849-.539-1.546-.539-.589 0-1.094.169-1.516.508-.422.333-.734.831-.938 1.492V137h-.937v-8.453h.898zm22.289 6.305a1.33 1.33 0 00-.562-1.118c-.37-.281-.93-.5-1.68-.656-.75-.161-1.333-.344-1.75-.547-.411-.208-.718-.461-.922-.758-.197-.296-.296-.656-.296-1.078 0-.666.278-1.216.836-1.648.557-.438 1.27-.656 2.14-.656.943 0 1.698.234 2.266.703.573.463.859 1.07.859 1.82h-.937c0-.495-.209-.906-.625-1.234-.412-.328-.933-.492-1.563-.492-.614 0-1.109.138-1.484.414-.37.27-.555.625-.555 1.062 0 .422.154.75.461.984.312.23.878.441 1.695.633.823.193 1.438.399 1.844.617.412.219.716.482.914.79.198.307.297.679.297 1.117 0 .713-.289 1.284-.867 1.711-.573.427-1.323.64-2.25.64-.985 0-1.784-.237-2.399-.711-.609-.479-.914-1.083-.914-1.812h.938c.036.547.265.974.687 1.281.427.302.99.453 1.688.453.651 0 1.177-.143 1.578-.429.401-.287.601-.649.601-1.086zm3.977-4.875a3.294 3.294 0 011.18-1.172 3.089 3.089 0 011.57-.414c.906 0 1.581.255 2.023.765.443.511.667 1.276.672 2.297V137h-.929v-5.555c-.006-.755-.167-1.317-.485-1.687-.312-.37-.815-.555-1.508-.555-.578 0-1.091.182-1.539.547-.442.359-.77.846-.984 1.461V137h-.93v-12h.93v4.977zM128.477 137c-.094-.266-.154-.659-.18-1.18a3.287 3.287 0 01-1.258.992 3.838 3.838 0 01-1.609.344c-.813 0-1.472-.226-1.977-.679-.5-.454-.75-1.026-.75-1.719 0-.823.341-1.474 1.024-1.953.687-.479 1.643-.719 2.867-.719h1.695v-.961c0-.604-.187-1.078-.562-1.422-.37-.349-.912-.523-1.625-.523-.651 0-1.191.166-1.618.5-.427.333-.64.734-.64 1.203l-.938-.008c0-.672.313-1.253.938-1.742.625-.495 1.393-.742 2.304-.742.943 0 1.685.237 2.227.711.547.468.828 1.125.844 1.968v4c0 .818.086 1.43.258 1.836V137h-1zm-2.938-.672a3.12 3.12 0 001.672-.453 2.66 2.66 0 001.078-1.211v-1.859h-1.672c-.932.01-1.661.182-2.187.515-.526.328-.789.782-.789 1.36 0 .474.174.867.523 1.179.354.313.813.469 1.375.469zm5.805-3.633c0-1.312.291-2.356.875-3.133.588-.781 1.385-1.171 2.39-1.171 1.141 0 2.011.45 2.61 1.351V125h.929v12h-.875l-.039-1.125c-.599.854-1.479 1.281-2.64 1.281-.974 0-1.761-.39-2.36-1.172-.593-.786-.89-1.846-.89-3.179v-.11zm.945.164c0 1.079.216 1.93.649 2.555.432.62 1.041.93 1.828.93 1.151 0 1.968-.508 2.453-1.524v-3.968c-.485-1.099-1.297-1.649-2.438-1.649-.786 0-1.398.31-1.836.93-.437.614-.656 1.523-.656 2.726zm11.594 4.297a3.69 3.69 0 01-1.953-.531 3.633 3.633 0 01-1.352-1.477c-.323-.635-.484-1.346-.484-2.132v-.336c0-.813.156-1.545.468-2.196a3.761 3.761 0 011.321-1.531 3.23 3.23 0 011.828-.562c1.026 0 1.838.351 2.437 1.054.605.698.907 1.654.907 2.867v.524h-6.032v.18c0 .958.274 1.757.821 2.398.552.635 1.245.953 2.078.953.5 0 .94-.091 1.32-.273.386-.183.735-.474 1.047-.875l.586.445c-.687.995-1.685 1.492-2.992 1.492zm-.172-7.968c-.703 0-1.297.257-1.781.773-.479.516-.771 1.208-.875 2.078h5.07v-.101c-.026-.813-.258-1.474-.695-1.985-.438-.51-1.011-.765-1.719-.765zm10.227 5.664c0-.464-.188-.836-.563-1.118-.37-.281-.93-.5-1.68-.656-.75-.161-1.333-.344-1.75-.547-.411-.208-.718-.461-.922-.758-.197-.296-.296-.656-.296-1.078 0-.666.278-1.216.835-1.648.558-.438 1.271-.656 2.141-.656.943 0 1.698.234 2.266.703.573.463.859 1.07.859 1.82h-.937c0-.495-.209-.906-.625-1.234-.412-.328-.933-.492-1.563-.492-.614 0-1.109.138-1.484.414-.37.27-.555.625-.555 1.062 0 .422.154.75.461.984.313.23.878.441 1.695.633.823.193 1.438.399 1.844.617.412.219.716.482.914.79.198.307.297.679.297 1.117 0 .713-.289 1.284-.867 1.711-.573.427-1.323.64-2.25.64-.985 0-1.784-.237-2.399-.711-.609-.479-.914-1.083-.914-1.812h.938c.036.547.265.974.687 1.281.427.302.99.453 1.688.453.651 0 1.177-.143 1.578-.429.401-.287.602-.649.602-1.086z"/>
  <path fill="#121212" d="M169 1h161a7 7 0 017 7v149a7 7 0 01-7 7H169V1z"/>
  <path stroke="#fff" stroke-opacity=".12" d="M168.494 163.994v-163M169 52.5h168"/>
  <path fill="#fff" d="M250 75h12v12h-12z"/>
  <path stroke="#fff" stroke-opacity=".12" d="M169 105.5h168"/>
  <path fill="url(#pattern0)" d="M243 123h28v28h-28z"/>
  <path fill="url(#pattern1)" d="M243 14h28v28h-28z"/>
  <g>
    <path fill="#fff" d="M15 21h49v71H15z"/>
    <path fill="#C4C4C4" d="M18 24h21v32H18z"/>
    <g filter="url(#filter0_d_21:318)">
      <path fill="url(#paint0_linear_21:318)" d="M40 57h21v32H40z"/>
    </g>
    <path fill="#C4C4C4" d="M40 24h21v32H40z"/>
    <g filter="url(#filter1_d_21:318)">
      <path fill="url(#paint1_linear_21:318)" d="M18 57h21v32H18z"/>
    </g>
    <path stroke="#fff" stroke-opacity=".5" d="M16.646 47.203l24.749-24.749"/>
    <path stroke="#fff" stroke-opacity=".5" stroke-width="4" d="M16.586 52.799l30.405-30.406"/>
    <path fill="#666" d="M18 24h43v41H18z"/>
    <path fill="#C4C4C4" d="M18 63h43v2H18z"/>
  </g>
  <defs>
    <linearGradient id="paint0_linear_21:318" x1="50.5" x2="50.5" y1="57" y2="89" gradientUnits="userSpaceOnUse">
      <stop offset=".49" stop-color="#6EDFEE"/>
      <stop offset="1" stop-color="#FCE69A"/>
    </linearGradient>
    <linearGradient id="paint1_linear_21:318" x1="28.5" x2="28.5" y1="57" y2="89" gradientUnits="userSpaceOnUse">
      <stop offset=".49" stop-color="#6EDFEE"/>
      <stop offset="1" stop-color="#FCE69A"/>
    </linearGradient>
    <pattern id="pattern0" width="1" height="1" patternContentUnits="objectBoundingBox">
      <use transform="scale(.01042)" xlink:href="#image0_21:318"/>
    </pattern>
    <pattern id="pattern1" width="1" height="1" patternContentUnits="objectBoundingBox">
      <use transform="scale(.01042)" xlink:href="#image1_21:318"/>
    </pattern>
    <filter id="filter0_d_21:318" width="51" height="62" x="25" y="55" color-interpolation-filters="sRGB" filterUnits="userSpaceOnUse">
      <feFlood flood-opacity="0" result="BackgroundImageFix"/>
      <feColorMatrix in="SourceAlpha" result="hardAlpha" values="0 0 0 0 0 0 0 0 0 0 0 0 0 0 0 0 0 0 127 0"/>
      <feMorphology in="SourceAlpha" operator="dilate" radius="1" result="effect1_dropShadow_21:318"/>
      <feOffset dy="13"/>
      <feGaussianBlur stdDeviation="7"/>
      <feComposite in2="hardAlpha" operator="out"/>
      <feColorMatrix values="0 0 0 0 0.941667 0 0 0 0 0.779386 0 0 0 0 0.204028 0 0 0 0.25 0"/>
      <feBlend in2="BackgroundImageFix" result="effect1_dropShadow_21:318"/>
      <feBlend in="SourceGraphic" in2="effect1_dropShadow_21:318" result="shape"/>
    </filter>
    <filter id="filter1_d_21:318" width="51" height="62" x="3" y="55" color-interpolation-filters="sRGB" filterUnits="userSpaceOnUse">
      <feFlood flood-opacity="0" result="BackgroundImageFix"/>
      <feColorMatrix in="SourceAlpha" result="hardAlpha" values="0 0 0 0 0 0 0 0 0 0 0 0 0 0 0 0 0 0 127 0"/>
      <feMorphology in="SourceAlpha" operator="dilate" radius="1" result="effect1_dropShadow_21:318"/>
      <feOffset dy="13"/>
      <feGaussianBlur stdDeviation="7"/>
      <feComposite in2="hardAlpha" operator="out"/>
      <feColorMatrix values="0 0 0 0 0.941667 0 0 0 0 0.779386 0 0 0 0 0.204028 0 0 0 0.25 0"/>
      <feBlend in2="BackgroundImageFix" result="effect1_dropShadow_21:318"/>
      <feBlend in="SourceGraphic" in2="effect1_dropShadow_21:318" result="shape"/>
    </filter>
  </defs>
</svg>
