<svg xmlns="http://www.w3.org/2000/svg" xmlns:xlink="http://www.w3.org/1999/xlink" width="338" height="338" fill="none" viewBox="0 0 338 338">
  <g class="Group 4">
    <g class="Frame 1">
      <g class="Widget 1x1">
        <g class="Background">
          <rect width="338" height="338" fill="#121212" rx="8"/>
          <rect width="337" height="337" x=".5" y=".5" stroke="#fff" stroke-opacity=".12" rx="7.5"/>
        </g>
      </g>
      <path fill="#fff" d="M146.688 265.391c-.141 1.203-.586 2.132-1.336 2.789-.745.651-1.737.976-2.977.976-1.344 0-2.422-.482-3.234-1.445-.808-.964-1.211-2.253-1.211-3.867v-1.094c0-1.057.187-1.987.562-2.789.38-.802.917-1.417 1.61-1.844.692-.432 1.494-.648 2.406-.648 1.208 0 2.177.338 2.906 1.015.729.672 1.154 1.605 1.274 2.797h-1.508c-.131-.906-.414-1.562-.852-1.969-.432-.406-1.039-.609-1.82-.609-.959 0-1.711.354-2.258 1.063-.542.708-.812 1.716-.812 3.023v1.102c0 1.234.257 2.216.773 2.945.516.729 1.237 1.094 2.164 1.094.833 0 1.471-.188 1.914-.563.448-.38.745-1.039.891-1.976h1.508zm3.273-3.821c.641-.786 1.474-1.179 2.5-1.179 1.786 0 2.687 1.007 2.703 3.023V269h-1.445v-5.594c-.005-.609-.146-1.06-.422-1.351-.271-.292-.695-.438-1.274-.438-.468 0-.88.125-1.234.375s-.63.578-.828.985V269h-1.445v-12h1.445v4.57zm12.586 7.43c-.083-.167-.151-.464-.203-.891-.672.698-1.474 1.047-2.406 1.047-.834 0-1.519-.234-2.055-.703-.531-.474-.797-1.073-.797-1.797 0-.88.333-1.562 1-2.047.672-.489 1.615-.734 2.828-.734h1.406v-.664c0-.505-.151-.906-.453-1.203-.302-.302-.747-.453-1.336-.453-.515 0-.948.13-1.297.39-.349.261-.523.576-.523.946h-1.453c0-.422.148-.829.445-1.219.302-.396.708-.708 1.219-.938a4.131 4.131 0 011.695-.343c.974 0 1.737.244 2.289.734.552.484.839 1.154.86 2.008v3.89c0 .776.099 1.394.296 1.852V269h-1.515zm-2.399-1.102c.454 0 .883-.117 1.29-.351.406-.235.7-.539.882-.914v-1.735h-1.132c-1.771 0-2.657.519-2.657 1.555 0 .453.151.807.453 1.063.302.255.69.382 1.164.382zm9.969-6.054a4.276 4.276 0 00-.711-.055c-.948 0-1.591.404-1.929 1.211v6h-1.446v-8.453h1.407l.023.976c.474-.755 1.146-1.132 2.016-1.132.281 0 .494.036.64.109v1.344zm.836 2.859c0-1.318.305-2.364.914-3.141.61-.781 1.417-1.171 2.422-1.171 1.031 0 1.836.364 2.414 1.093l.07-.937h1.321v8.25c0 1.094-.326 1.956-.977 2.586-.646.63-1.515.945-2.609.945a4.35 4.35 0 01-1.789-.39c-.584-.261-1.029-.618-1.336-1.071l.75-.867c.62.766 1.377 1.148 2.273 1.148.703 0 1.25-.197 1.641-.593.396-.396.594-.953.594-1.672v-.727c-.579.667-1.368 1-2.368 1-.989 0-1.791-.398-2.406-1.195-.609-.797-.914-1.883-.914-3.258zm1.453.164c0 .953.196 1.703.586 2.25.391.542.938.813 1.641.813.911 0 1.581-.414 2.008-1.242v-3.86c-.443-.807-1.107-1.211-1.993-1.211-.703 0-1.252.274-1.648.821-.396.546-.594 1.356-.594 2.429zm9.446 4.133h-1.446v-8.453h1.446V269zm-1.563-10.695a.87.87 0 01.211-.594c.146-.162.359-.242.641-.242.281 0 .494.08.64.242a.852.852 0 01.219.594.827.827 0 01-.219.586c-.146.156-.359.234-.64.234-.282 0-.495-.078-.641-.234a.844.844 0 01-.211-.586zm5.25 2.242l.047 1.062c.646-.812 1.49-1.218 2.531-1.218 1.787 0 2.688 1.007 2.703 3.023V269h-1.445v-5.594c-.005-.609-.146-1.06-.422-1.351-.271-.292-.695-.438-1.273-.438-.469 0-.881.125-1.235.375-.354.25-.63.578-.828.985V269h-1.445v-8.453h1.367zm7.117 4.156c0-1.318.305-2.364.914-3.141.61-.781 1.417-1.171 2.422-1.171 1.031 0 1.836.364 2.414 1.093l.071-.937h1.32v8.25c0 1.094-.326 1.956-.977 2.586-.646.63-1.515.945-2.609.945-.609 0-1.206-.13-1.789-.39-.583-.261-1.029-.618-1.336-1.071l.75-.867c.62.766 1.378 1.148 2.273 1.148.703 0 1.25-.197 1.641-.593.396-.396.594-.953.594-1.672v-.727c-.578.667-1.367 1-2.367 1-.99 0-1.792-.398-2.407-1.195-.609-.797-.914-1.883-.914-3.258zm1.453.164c0 .953.196 1.703.586 2.25.391.542.938.813 1.641.813.911 0 1.581-.414 2.008-1.242v-3.86c-.443-.807-1.107-1.211-1.992-1.211-.704 0-1.253.274-1.649.821-.396.546-.594 1.356-.594 2.429z" class="Charging"/>
      <path fill="#fff" d="M123.867 244.594l.063.242.07-.242 3.578-9.969h1.055L124.398 246h-.921l-4.235-11.375h1.047l3.578 9.969zM135.07 246c-.093-.266-.153-.659-.179-1.18a3.294 3.294 0 01-1.258.992 3.84 3.84 0 01-1.61.344c-.812 0-1.471-.226-1.976-.679-.5-.454-.75-1.026-.75-1.719 0-.823.341-1.474 1.023-1.953.688-.479 1.644-.719 2.868-.719h1.695v-.961c0-.604-.188-1.078-.563-1.422-.369-.349-.911-.523-1.625-.523-.651 0-1.19.166-1.617.5-.427.333-.64.734-.64 1.203l-.938-.008c0-.672.312-1.253.938-1.742.624-.495 1.393-.742 2.304-.742.943 0 1.685.237 2.227.711.547.468.828 1.125.843 1.968v4c0 .818.086 1.43.258 1.836V246h-1zm-2.937-.672a3.12 3.12 0 001.672-.453 2.665 2.665 0 001.078-1.211v-1.859h-1.672c-.932.01-1.662.182-2.188.515-.526.328-.789.782-.789 1.36 0 .474.175.867.524 1.179.354.313.812.469 1.375.469zm9.305.039c.651 0 1.195-.182 1.632-.547.443-.369.683-.846.719-1.429h.899a2.677 2.677 0 01-.485 1.414 3.048 3.048 0 01-1.187.992 3.552 3.552 0 01-1.578.359c-1.11 0-1.99-.385-2.641-1.156-.646-.771-.969-1.807-.969-3.109v-.282c0-.833.146-1.57.438-2.211.291-.64.708-1.135 1.25-1.484.546-.349 1.185-.523 1.914-.523.927 0 1.69.276 2.289.828.604.552.927 1.278.969 2.179h-.899c-.042-.661-.281-1.195-.719-1.601-.432-.406-.979-.609-1.64-.609-.844 0-1.5.304-1.969.914-.464.609-.695 1.463-.695 2.562v.274c0 1.078.231 1.919.695 2.523.469.604 1.128.906 1.977.906zM152 244.93c-.562.817-1.461 1.226-2.695 1.226-.901 0-1.586-.26-2.055-.781-.469-.526-.708-1.302-.719-2.328v-5.5h.93v5.383c0 1.609.651 2.414 1.953 2.414 1.354 0 2.211-.56 2.57-1.68v-6.117h.938V246h-.906l-.016-1.07zm8.797 0c-.563.817-1.461 1.226-2.695 1.226-.901 0-1.586-.26-2.055-.781-.469-.526-.708-1.302-.719-2.328v-5.5h.93v5.383c0 1.609.651 2.414 1.953 2.414 1.354 0 2.211-.56 2.57-1.68v-6.117h.938V246h-.907l-.015-1.07zm4.211-7.383l.031 1.375c.313-.511.703-.893 1.172-1.149.469-.255.99-.382 1.562-.382 1.334 0 2.18.547 2.539 1.64a3.159 3.159 0 011.211-1.211 3.338 3.338 0 011.672-.429c1.813 0 2.737.989 2.774 2.968V246h-.938v-5.57c-.005-.756-.169-1.315-.492-1.68-.318-.365-.838-.547-1.562-.547-.672.011-1.24.229-1.704.656a2.294 2.294 0 00-.773 1.547V246h-.938v-5.641c-.005-.724-.177-1.263-.515-1.617-.333-.359-.849-.539-1.547-.539-.589 0-1.094.169-1.516.508-.422.333-.734.831-.937 1.492V246h-.938v-8.453h.899zm21.133.797a3.446 3.446 0 00-.633-.055c-.584 0-1.078.164-1.485.492-.401.323-.687.795-.859 1.414V246h-.93v-8.453h.914l.016 1.344c.495-1 1.289-1.5 2.383-1.5.26 0 .466.033.617.101l-.023.852zm.812 3.304c0-.812.156-1.544.469-2.195.318-.651.763-1.156 1.336-1.515.578-.365 1.232-.547 1.961-.547 1.125 0 2.036.395 2.734 1.187.698.787 1.047 1.831 1.047 3.133v.195c0 .818-.159 1.555-.477 2.211-.312.651-.755 1.154-1.328 1.508-.573.354-1.226.531-1.961.531-1.119 0-2.031-.393-2.734-1.179-.698-.792-1.047-1.839-1.047-3.141v-.188zm.938.258c0 1.011.26 1.841.781 2.492.526.646 1.213.969 2.062.969.844 0 1.526-.323 2.047-.969.526-.651.789-1.507.789-2.57v-.18c0-.645-.119-1.237-.359-1.773-.24-.536-.576-.951-1.008-1.242a2.557 2.557 0 00-1.484-.445c-.834 0-1.513.328-2.039.984-.526.651-.789 1.505-.789 2.562v.172zm15.351-.047c0 1.318-.291 2.365-.875 3.141-.583.771-1.367 1.156-2.351 1.156-1.177 0-2.068-.437-2.672-1.312l-.039 1.156h-.875v-12h.929v4.773c.594-.921 1.474-1.382 2.641-1.382 1 0 1.789.382 2.367 1.148.584.76.875 1.82.875 3.18v.14zm-.937-.164c0-1.114-.216-1.974-.649-2.578-.432-.609-1.041-.914-1.828-.914-.599 0-1.107.149-1.523.445-.417.292-.732.722-.946 1.29v3.812c.469 1.062 1.297 1.594 2.485 1.594.771 0 1.372-.305 1.804-.914.438-.61.657-1.521.657-2.735zm2.492-.047c0-.812.156-1.544.469-2.195a3.602 3.602 0 011.336-1.515 3.592 3.592 0 011.96-.547c1.126 0 2.037.395 2.735 1.187.698.787 1.047 1.831 1.047 3.133v.195c0 .818-.159 1.555-.477 2.211-.312.651-.755 1.154-1.328 1.508-.573.354-1.227.531-1.961.531-1.12 0-2.031-.393-2.734-1.179-.698-.792-1.047-1.839-1.047-3.141v-.188zm.937.258c0 1.011.261 1.841.782 2.492.526.646 1.213.969 2.062.969.844 0 1.526-.323 2.047-.969.526-.651.789-1.507.789-2.57v-.18c0-.645-.12-1.237-.359-1.773-.24-.536-.576-.951-1.008-1.242a2.558 2.558 0 00-1.485-.445c-.833 0-1.513.328-2.039.984-.526.651-.789 1.505-.789 2.562v.172zm10-6.523v2.164h1.75v.765h-1.75v5.633c0 .469.084.818.25 1.047.172.229.456.344.852.344.156 0 .409-.026.758-.078l.039.765c-.245.089-.578.133-1 .133-.641 0-1.107-.185-1.399-.554-.291-.375-.437-.925-.437-1.649v-5.641h-1.555v-.765h1.555v-2.164h.937z" class="Vacuum robot"/>
      <g class="Frame 4">
        <g class="Rectangle 30" filter="url(#filter0_i_42:247)">
          <path fill="#121212" d="M1 285h336v45a7 7 0 01-7 7H8a7 7 0 01-7-7v-45z"/>
        </g>
        <path fill="url(#pattern0)" d="M13 297h28v28H13z" class="Play"/>
        <path fill="url(#pattern1)" d="M65 297h28v28H65z" class="Home"/>
      </g>
      <path fill="url(#pattern2)" fill-opacity=".7" d="M89 55h160v159.003H89z" class="Untitled 1"/>
    </g>
    <g class="Group 5">
      <path fill="url(#pattern3)" d="M289 10h28v28h-28z" class="Battery Level"/>
      <path fill="url(#pattern4)" d="M306 13h22v22h-22z" class="Lightning Bolt"/>
      <path fill="#fff" d="M270.863 22.645a2.3 2.3 0 01-.396 1.326 2.65 2.65 0 01-1.06.909c.52.223.93.549 1.231.977.305.429.458.914.458 1.457 0 .86-.292 1.547-.875 2.057-.579.51-1.342.766-2.29.766-.957 0-1.725-.256-2.304-.766-.574-.515-.861-1.2-.861-2.057 0-.538.145-1.024.437-1.457a2.764 2.764 0 011.224-.984 2.608 2.608 0 01-1.046-.91 2.346 2.346 0 01-.383-1.319c0-.838.269-1.503.807-1.996.537-.492 1.246-.738 2.126-.738.875 0 1.581.246 2.119.738.542.493.813 1.158.813 1.997zm-1.032 4.641c0-.556-.178-1.01-.533-1.36-.351-.351-.811-.527-1.381-.527s-1.028.174-1.374.52c-.342.346-.513.802-.513 1.367s.167 1.01.499 1.333c.338.324.805.486 1.402.486.592 0 1.057-.162 1.394-.486.337-.328.506-.772.506-1.333zm-1.9-6.337c-.497 0-.9.155-1.21.465-.306.305-.458.722-.458 1.251 0 .506.15.916.451 1.23.305.31.711.465 1.217.465.506 0 .909-.155 1.21-.465.305-.314.458-.724.458-1.23s-.158-.918-.472-1.237c-.315-.32-.713-.479-1.196-.479zm10.999 4.806c0 1.481-.253 2.582-.759 3.302-.506.72-1.297 1.08-2.372 1.08-1.062 0-1.848-.351-2.359-1.053-.51-.706-.774-1.76-.793-3.158v-1.689c0-1.463.253-2.55.759-3.26.506-.711 1.299-1.067 2.379-1.067 1.071 0 1.86.344 2.365 1.032.506.684.766 1.741.78 3.172v1.64zm-1.265-1.73c0-1.07-.15-1.85-.451-2.337-.301-.493-.777-.739-1.429-.739-.647 0-1.119.244-1.415.732-.296.487-.449 1.237-.458 2.249v2.023c0 1.076.155 1.87.465 2.386.314.51.788.766 1.422.766.624 0 1.087-.242 1.388-.725.305-.483.464-1.244.478-2.283v-2.072zm2.775-2.064c0-.597.19-1.09.568-1.477.383-.387.873-.58 1.47-.58.606 0 1.096.195 1.469.587.379.388.568.891.568 1.511v.485c0 .602-.192 1.094-.575 1.477-.378.378-.861.567-1.449.567-.592 0-1.082-.189-1.47-.567-.387-.383-.581-.891-.581-1.524v-.48zm.944.526c0 .356.1.65.301.882.2.228.469.342.806.342.324 0 .584-.112.78-.335.2-.223.3-.529.3-.916v-.5c0-.355-.098-.649-.294-.88-.196-.233-.462-.35-.799-.35-.338 0-.604.117-.8.35-.196.232-.294.535-.294.908v.5zm3.903 5.073c0-.597.189-1.087.567-1.47.383-.387.873-.581 1.47-.581s1.087.191 1.47.574c.383.383.574.891.574 1.524v.486c0 .597-.191 1.089-.574 1.476-.378.383-.864.575-1.456.575-.593 0-1.082-.19-1.47-.568-.387-.383-.581-.89-.581-1.524v-.492zm.943.533c0 .36.101.656.301.888.201.228.47.342.807.342.328 0 .59-.111.786-.335.196-.228.294-.535.294-.923v-.505c0-.36-.1-.654-.301-.882-.196-.228-.46-.342-.793-.342a1.02 1.02 0 00-.793.342c-.2.223-.301.526-.301.909v.506zm-3.452 1.155l-.717-.451 4.86-7.78.718.452-4.861 7.779z" class="80%"/>
    </g>
  </g>
  <defs>
    <pattern id="pattern0" width="1" height="1" class="pattern0" patternContentUnits="objectBoundingBox">
      <use transform="scale(.01042)" xlink:href="#image0_42:247"/>
    </pattern>
    <pattern id="pattern1" width="1" height="1" class="pattern1" patternContentUnits="objectBoundingBox">
      <use transform="scale(.01042)" xlink:href="#image1_42:247"/>
    </pattern>
    <pattern id="pattern2" width="1" height="1" class="pattern2" patternContentUnits="objectBoundingBox">
      <use transform="scale(.00156)" xlink:href="#image2_42:247"/>
    </pattern>
    <pattern id="pattern3" width="1" height="1" class="pattern3" patternContentUnits="objectBoundingBox">
      <use transform="scale(.01042)" xlink:href="#image3_42:247"/>
    </pattern>
    <pattern id="pattern4" width="1" height="1" class="pattern4" patternContentUnits="objectBoundingBox">
      <use transform="scale(.01042)" xlink:href="#image4_42:247"/>
    </pattern>
    <filter id="filter0_i_42:247" width="336" height="52" x="1" y="285" class="filter0_i_42:247" color-interpolation-filters="sRGB" filterUnits="userSpaceOnUse">
      <feFlood flood-opacity="0" result="BackgroundImageFix"/>
      <feBlend in="SourceGraphic" in2="BackgroundImageFix" result="shape"/>
      <feColorMatrix in="SourceAlpha" result="hardAlpha" values="0 0 0 0 0 0 0 0 0 0 0 0 0 0 0 0 0 0 127 0"/>
      <feOffset dy="1"/>
      <feComposite in2="hardAlpha" k2="-1" k3="1" operator="arithmetic"/>
      <feColorMatrix values="0 0 0 0 1 0 0 0 0 1 0 0 0 0 1 0 0 0 0.12 0"/>
      <feBlend in2="shape" result="effect1_innerShadow_42:247"/>
    </filter>
  </defs>
</svg>
