<?xml version="1.0" standalone="no"?>
<!DOCTYPE svg PUBLIC "-//W3C//DTD SVG 20010904//EN"
 "http://www.w3.org/TR/2001/REC-SVG-20010904/DTD/svg10.dtd">
<svg version="1.0" xmlns="http://www.w3.org/2000/svg"
 width="512.000000pt" height="512.000000pt" viewBox="0 0 512.000000 512.000000"
 preserveAspectRatio="xMidYMid meet">
<metadata>
Created by potrace 1.14, written by Peter Selinger 2001-2017
</metadata>
<g transform="translate(0.000000,512.000000) scale(0.100000,-0.100000)"
fill="#000000" stroke="none">
<path d="M2074 3559 c-13 -14 -21 -42 -24 -83 l-5 -61 -62 -3 c-53 -3 -65 -7
-83 -29 -31 -39 -26 -86 11 -117 25 -21 41 -26 85 -26 l54 0 0 -59 c0 -54 3
-61 32 -86 25 -21 38 -25 62 -21 50 10 76 48 76 110 l0 54 62 4 c51 4 65 9 85
32 30 36 30 80 -2 111 -20 21 -34 25 -83 25 l-60 0 -4 66 c-3 55 -8 70 -27 85
-32 26 -93 25 -117 -2z"/>
<path d="M2673 3558 c-12 -13 -58 -136 -107 -284 -47 -143 -94 -268 -103 -277
-10 -9 -135 -56 -278 -103 -151 -50 -269 -95 -282 -107 -16 -14 -23 -32 -23
-57 0 -25 7 -43 23 -57 13 -13 129 -56 287 -107 146 -48 270 -94 277 -103 7
-9 51 -133 99 -277 92 -278 107 -306 164 -306 58 0 72 28 165 309 52 157 95
270 106 279 10 9 134 54 276 100 153 50 267 92 281 105 26 24 30 81 7 111 -9
12 -109 50 -280 107 -147 48 -276 95 -286 105 -12 11 -52 119 -106 282 -47
147 -94 273 -104 283 -27 27 -90 25 -116 -3z"/>
<path d="M3275 2368 c-24 -21 -29 -34 -33 -86 l-4 -62 -55 0 c-47 0 -59 -4
-84 -29 -36 -36 -37 -70 -3 -110 23 -28 31 -31 85 -31 l59 0 0 -54 c0 -70 34
-116 85 -116 55 0 79 28 85 102 l5 63 63 5 c74 6 102 30 102 85 0 56 -27 78
-104 83 l-66 4 0 58 c0 69 -19 98 -71 106 -28 5 -41 1 -64 -18z"/>
</g>
</svg>
