<svg width="33" height="30" viewBox="0 0 33 30" fill="none" xmlns="http://www.w3.org/2000/svg">
<path d="M15.016 24.16C13.3947 24.16 11.9333 23.7973 10.632 23.072C9.35198 22.3253 8.33865 21.312 7.59198 20.032C6.84532 18.7306 6.47198 17.248 6.47198 15.584C6.47198 13.8986 6.84532 12.416 7.59198 11.136C8.33865 9.85598 9.35198 8.85331 10.632 8.12798C11.912 7.40264 13.3733 7.03998 15.016 7.03998C16.68 7.03998 18.152 7.40264 19.432 8.12798C20.7333 8.85331 21.7467 9.85598 22.472 11.136C23.2187 12.416 23.592 13.8986 23.592 15.584C23.592 17.248 23.2187 18.7306 22.472 20.032C21.7467 21.312 20.7333 22.3253 19.432 23.072C18.1307 23.7973 16.6587 24.16 15.016 24.16ZM15.016 22.144C16.232 22.144 17.3093 21.8773 18.248 21.344C19.1867 20.7893 19.9227 20.0213 20.456 19.04C21.0107 18.0373 21.288 16.8853 21.288 15.584C21.288 14.2613 21.0107 13.1093 20.456 12.128C19.9227 11.1466 19.1867 10.3893 18.248 9.85598C17.3093 9.30131 16.2427 9.02398 15.048 9.02398C13.8533 9.02398 12.7867 9.30131 11.848 9.85598C10.9093 10.3893 10.1627 11.1466 9.60799 12.128C9.05332 13.1093 8.77599 14.2613 8.77599 15.584C8.77599 16.8853 9.05332 18.0373 9.60799 19.04C10.1627 20.0213 10.9093 20.7893 11.848 21.344C12.7867 21.8773 13.8427 22.144 15.016 22.144Z" fill="black"/>
<g clip-path="url(#clip0_1106_160)">
<path d="M15.325 18.1913L10.6338 13.5L9.03625 15.0863L15.325 21.375L28.825 7.87501L27.2388 6.28876L15.325 18.1913Z" fill="black"/>
</g>
<defs>
<clipPath id="clip0_1106_160">
<rect width="27" height="27" fill="white" transform="translate(5.20001)"/>
</clipPath>
</defs>
</svg>
